<svg xmlns="http://www.w3.org/2000/svg" viewBox="0 0 512 512">
  <defs>
    <linearGradient id="g" x1="0" y1="0" x2="1" y2="1">
      <stop offset="0" stop-color="#0d4a30"/>
      <stop offset="1" stop-color="#27a065"/>
    </linearGradient>
  </defs>
  <rect width="512" height="512" rx="96" fill="url(#g)"/>
  <g fill="#d4a843">
    <path d="M256 96c-22 0-40 18-40 40v16h-48c-18 0-32 14-32 32v224c0 18 14 32 32 32h176c18 0 32-14 32-32V184c0-18-14-32-32-32h-48v-16c0-22-18-40-40-40zm0 24c9 0 16 7 16 16v16h-32v-16c0-9 7-16 16-16zm-88 56h176c4 0 8 4 8 8v224c0 4-4 8-8 8H168c-4 0-8-4-8-8V184c0-4 4-8 8-8z"/>
    <path d="M200 232h112v16H200zm0 40h112v16H200zm0 40h80v16h-80z"/>
    <circle cx="256" cy="360" r="14"/>
  </g>
</svg>
